<svg width="231" height="67" viewBox="0 0 231 67" fill="none" xmlns="http://www.w3.org/2000/svg">
<path d="M124.2 19.1C121.9 18.9 120.2 20.3 120.2 22.7V29.6H116.5V15.7H120.4C120.4 16.4 120.3 17.1 120.1 17.7C120.1 17.7 120.1 17.7 120.1 17.6C120.3 17.2 120.6 16.9 120.9 16.6L121 16.5C121.2 16.3 121.5 16.1 121.8 15.9C121.8 15.9 121.8 15.9 121.9 15.9C122 15.9 121.9 15.9 122 15.9C122.9 15.5 124 15.4 125.3 15.8L124.9 19.2C124.8 19.2 124.8 19.2 124.7 19.2C124.7 19.2 124.7 19.2 124.6 19.2C124.5 19.2 124.5 19.2 124.4 19.2C124.4 19.2 124.4 19.2 124.3 19.2C124.3 19.1 124.2 19.1 124.2 19.1Z" fill="white"/>
<path d="M150.5 15.7H146.8V29.6H150.5V15.7Z" fill="white"/>
<path d="M150.5 10.6H146.8V13.4H150.5V10.6Z" fill="white"/>
<path d="M131.8 10.6H128.1V13.4H131.8V10.6Z" fill="white"/>
<path d="M190.8 10.6H187.1V29.6H190.8V10.6Z" fill="white"/>
<path d="M143.4 18.9V15.7H138.8V10.6H135.1V23.7C135.1 25.7 135.4 26.9 136.1 27.8C137 29.1 138.7 29.8 140.9 29.8C141.6 29.8 142.8 29.7 143.3 29.5L142.6 26.4C142.3 26.4 141.7 26.5 141.2 26.5C140.3 26.5 139.7 26.2 139.3 25.8C139 25.4 138.8 24.9 138.8 24.1V18.9H143.4Z" fill="white"/>
<path d="M179.6 15.7V16.5C178.5 15.8 177.3 15.5 175.9 15.5C172 15.5 168.8 18.7 168.8 22.6C168.8 26.5 172 29.7 175.9 29.7C177.2 29.7 178.5 29.3 179.6 28.7V29.5H183.3V15.7H179.6ZM176 26.4C173.9 26.4 172.3 24.7 172.3 22.7C172.3 20.6 174 19 176 19C178.1 19 179.7 20.7 179.7 22.7C179.7 24.7 178 26.4 176 26.4Z" fill="white"/>
<path d="M163.9 24.8C163.2 25.7 162.1 26.3 160.9 26.3C158.8 26.3 157.2 24.6 157.2 22.6C157.2 20.6 158.9 18.9 160.9 18.9C162.1 18.9 163.2 19.5 163.9 20.4L166.7 18.4C165.4 16.6 163.3 15.5 160.9 15.5C157 15.5 153.8 18.7 153.8 22.6C153.8 26.5 157 29.7 160.9 29.7C163.3 29.7 165.4 28.6 166.7 26.8L163.9 24.8Z" fill="white"/>
<path d="M131.8 15.7H128.1V29.6H131.8V15.7Z" fill="white"/>
<path d="M110.3 23.6C109.2 25.1 107.4 26.1 105.4 26.1C102.1 26.1 99.4002 23.4 99.4002 20.1C99.4002 16.8 102.1 14.1 105.4 14.1C107.4 14.1 109.2 15.1 110.3 16.6L113.3 14.4C111.5 12 108.7 10.4 105.4 10.4C100 10.4 95.7002 14.7 95.7002 20.1C95.7002 25.5 100 29.8 105.4 29.8C108.6 29.8 111.5 28.2 113.3 25.8L110.3 23.6Z" fill="white"/>
<path d="M122.4 49.3C122.4 45.5 119.7 42.3 115.9 42.3C111.8 42.3 109.2 45.6 109.2 49.5C109.2 53.8 112.3 56.6 116.4 56.6C118.5 56.6 120.7 55.7 122 54.1L119.9 52C119.2 52.7 118 53.6 116.5 53.6C114.5 53.6 113 52.3 112.8 50.3H122.3C122.4 50 122.4 49.7 122.4 49.3ZM113 47.6C113.2 46.4 114.4 45.2 115.9 45.2C117.4 45.2 118.5 46.4 118.6 47.6H113Z" fill="#29E7D6"/>
<path d="M134.7 51.6C134 52.5 132.9 53.1 131.7 53.1C129.6 53.1 128 51.4 128 49.4C128 47.3 129.7 45.7 131.7 45.7C132.9 45.7 134 46.3 134.7 47.2L137.5 45.2C136.2 43.4 134.1 42.3 131.7 42.3C127.8 42.3 124.6 45.5 124.6 49.4C124.6 53.3 127.8 56.5 131.7 56.5C134.1 56.5 136.2 55.4 137.5 53.6L134.7 51.6Z" fill="#29E7D6"/>
<path d="M151.5 44.5C150.4 43.2 148.7 42.4 146.9 42.4C145.5 42.4 144.3 42.9 143.3 43.6V37.5H139.6V56.4H143.3V47.3C143.9 46.6 145 45.8 146.4 45.8C147.2 45.8 147.9 46.1 148.4 46.6C148.9 47.1 149.2 47.8 149.2 49.1V56.4H152.9V49.2C152.9 46.9 152.4 45.5 151.5 44.5Z" fill="#29E7D6"/>
<path d="M95.7998 37.4V41.1H100.9V56.3H104.6V41.1H111.4L109.8 37.4H95.7998Z" fill="#29E7D6"/>
<path d="M172.6 42.5L169.3 50.4L168.1 47.9L166.2 43.6L165.7 42.5H162.1L164.4 47.9L162.6 52.1L156.1 37.4H152.4L160.9 56.3H164.5L166.3 52.1L168.2 56.3H170.4L176.3 42.5H172.6Z" fill="#29E7D6"/>
<path d="M201.7 45.9C201.9 45.9 201.9 45.9 202 45.9C202 45.9 202 45.9 202.1 45.9C202.2 45.9 202.2 45.9 202.3 45.9L202.7 42.5C201.4 42.2 200.2 42.2 199.4 42.6C199.4 42.6 199.4 42.6 199.3 42.6C199.3 42.6 199.3 42.6 199.2 42.6C198.9 42.8 198.6 42.9 198.4 43.2L198.3 43.3C198 43.6 197.7 44 197.5 44.3C197.5 44.3 197.5 44.3 197.5 44.4C197.8 43.8 197.9 43.1 197.8 42.4H193.9V56.3H197.6V49.4C197.6 47.1 199.3 45.7 201.5 45.8C201.5 45.9 201.6 45.9 201.7 45.9Z" fill="#29E7D6"/>
<path d="M184 42.3C180.1 42.3 176.9 45.5 176.9 49.4C176.9 53.3 180.1 56.5 184 56.5C187.9 56.5 191.1 53.3 191.1 49.4C191.1 45.5 188 42.3 184 42.3ZM184 53.1C181.9 53.1 180.3 51.4 180.3 49.4C180.3 47.3 182 45.7 184 45.7C186.1 45.7 187.7 47.4 187.7 49.4C187.7 51.5 186.1 53.1 184 53.1Z" fill="#29E7D6"/>
<path d="M221.5 52.1C222.4 52.9 223.9 53.4 225.3 53.4C226.3 53.4 227.1 52.9 227.1 52.3C227.1 50.2 220.5 51 220.5 46.6C220.5 44 223 42.3 225.7 42.3C227.5 42.3 229.4 43 230.3 43.7L228.6 46.3C227.9 45.8 227 45.4 226 45.4C225 45.4 224.1 45.8 224.1 46.5C224.1 48.3 230.7 47.6 230.7 52.3C230.7 54.9 228.1 56.6 225.3 56.6C223.4 56.6 221.4 55.9 219.8 54.8L221.5 52.1Z" fill="#29E7D6"/>
<path d="M212.2 48.9L218.6 42.5H213.8L210 46.3L208.5 47.7V37.4H204.8V56.3H208.5V50.2L214.1 56.3H218.9L212.2 48.9Z" fill="#29E7D6"/>
<path d="M45.7999 2.7C43.6999 2.7 41.5999 2.9 39.5999 3.3C53.6999 6.1 64.2999 18.6 64.2999 33.5C64.2999 43.7 55.9999 52 45.7999 52C45.5999 52 45.4999 52 45.2999 52C45.2999 52 45.1999 52 45.0999 52C44.9999 52 44.8999 52 44.7999 52C44.6999 52 44.5999 52 44.5999 52C44.4999 52 44.3999 52 44.3999 52H44.1999C44.1999 52 44.0999 52 43.9999 52C43.8999 52 43.7999 52 43.6999 52C34.4999 51 27.2999 43.2 27.2999 33.7C27.2999 25.7 32.3999 18.8 39.5999 16.3C37.6999 15.6 35.5999 15.3 33.3999 15.3C23.1999 15.3 14.8999 23.6 14.8999 33.8C14.8999 34.1 14.8999 34.3 14.8999 34.6C14.8999 34.7 14.8999 34.8 14.8999 34.8C14.8999 35 14.8999 35.1 14.8999 35.3C14.8999 35.4 14.8999 35.5 14.8999 35.6C14.8999 35.8 14.8999 35.9 14.8999 36.1C14.8999 36.2 14.8999 36.3 14.8999 36.4C14.8999 36.6 14.8999 36.7 14.8999 36.9C14.8999 37 14.8999 37.1 14.8999 37.2C14.8999 37.4 14.8999 37.5 14.8999 37.7C14.8999 37.8 14.8999 37.9 14.8999 38C14.8999 38.2 14.8999 38.3 14.9999 38.5C14.9999 38.6 14.9999 38.7 14.9999 38.7C14.9999 38.9 15.0999 39.2 15.0999 39.4C15.0999 39.6 15.1999 39.9 15.2999 40.1C15.2999 40.2 15.2999 40.3 15.2999 40.3C15.2999 40.5 15.3999 40.6 15.3999 40.8C15.3999 40.9 15.3999 41 15.4999 41.1C15.4999 41.3 15.5999 41.4 15.5999 41.5C15.5999 41.6 15.5999 41.7 15.6999 41.8C15.6999 42 15.7999 42.1 15.7999 42.2C15.7999 42.3 15.7999 42.4 15.8999 42.5C15.8999 42.7 15.9999 42.8 15.9999 42.9C15.9999 43 15.9999 43.1 16.0999 43.2C16.0999 43.4 16.1999 43.5 16.2999 43.6C16.2999 43.7 16.2999 43.8 16.3999 43.8C16.4999 44 16.4999 44.2 16.5999 44.4V44.5C16.6999 44.7 16.7999 44.9 16.8999 45.2C16.8999 45.3 16.9999 45.4 16.9999 45.4C17.0999 45.6 17.0999 45.7 17.1999 45.8C17.1999 45.9 17.2999 46 17.2999 46.1C17.2999 46.2 17.3999 46.4 17.4999 46.5C17.4999 46.6 17.5999 46.7 17.5999 46.8C17.5999 46.9 17.6999 47 17.7999 47.2C17.7999 47.3 17.8999 47.4 17.8999 47.5C17.9999 47.6 17.9999 47.7 18.0999 47.9C18.0999 48 18.1999 48.1 18.2999 48.2C18.3999 48.3 18.3999 48.5 18.4999 48.6C18.4999 48.7 18.5999 48.8 18.5999 48.8C18.6999 49 18.7999 49.1 18.8999 49.3C18.8999 49.3 18.8999 49.4 18.9999 49.5C19.0999 49.7 19.1999 49.9 19.2999 50.1C19.2999 50.2 19.3999 50.3 19.4999 50.3C19.5999 50.4 19.6999 50.5 19.6999 50.7C19.6999 50.8 19.7999 50.9 19.8999 51C19.9999 51.1 20.0999 51.2 20.0999 51.3C20.1999 51.4 20.1999 51.5 20.2999 51.6C20.3999 51.7 20.4999 51.8 20.4999 51.9C20.4999 52 20.5999 52.1 20.6999 52.2C20.7999 52.3 20.8999 52.4 20.8999 52.5C20.9999 52.6 20.9999 52.7 21.0999 52.8C21.1999 52.9 21.2999 53 21.2999 53.1C21.2999 53.2 21.3999 53.3 21.4999 53.3C21.5999 53.4 21.6999 53.5 21.7999 53.6C21.7999 53.7 21.8999 53.7 21.9999 53.8C22.1999 54 22.2999 54.1 22.3999 54.3C22.4999 54.4 22.4999 54.5 22.5999 54.5C22.6999 54.6 22.7999 54.7 22.8999 54.8C22.9999 54.9 23.0999 55 23.0999 55C23.1999 55.1 23.2999 55.2 23.3999 55.3C23.4999 55.4 23.5999 55.5 23.5999 55.5C23.6999 55.6 23.7999 55.7 23.8999 55.8C23.9999 55.9 24.0999 56 24.0999 56C24.1999 56.1 24.2999 56.2 24.3999 56.3C24.4999 56.4 24.5999 56.5 24.5999 56.5C24.6999 56.6 24.7999 56.7 24.8999 56.7C24.9999 56.8 25.0999 56.9 25.0999 56.9C25.1999 57 25.2999 57.1 25.3999 57.2C25.4999 57.3 25.5999 57.4 25.6999 57.4C25.8999 57.5 25.9999 57.7 26.1999 57.8C26.2999 57.9 26.3999 58 26.4999 58C26.5999 58.1 26.6999 58.2 26.7999 58.2C26.8999 58.3 26.9999 58.4 27.0999 58.4C27.1999 58.5 27.2999 58.6 27.3999 58.6C27.4999 58.7 27.5999 58.8 27.6999 58.8C27.7999 58.9 27.8999 59 27.9999 59C28.0999 59.1 28.1999 59.2 28.2999 59.2C28.3999 59.3 28.4999 59.3 28.5999 59.4C28.6999 59.5 28.7999 59.6 28.8999 59.6C28.9999 59.7 29.0999 59.7 29.1999 59.8C29.2999 59.9 29.3999 59.9 29.4999 60C29.5999 60.1 29.6999 60.1 29.7999 60.2C29.9999 60.3 30.0999 60.4 30.2999 60.5C30.3999 60.6 30.5999 60.7 30.6999 60.7C30.7999 60.8 30.8999 60.8 30.9999 60.9C31.0999 60.9 31.1999 61 31.2999 61.1C31.3999 61.2 31.4999 61.2 31.5999 61.3C31.6999 61.3 31.7999 61.4 31.8999 61.5C31.9999 61.5 32.0999 61.6 32.1999 61.7C32.2999 61.7 32.3999 61.8 32.4999 61.9C32.5999 61.9 32.6999 62 32.7999 62.1C32.8999 62.1 32.9999 62.2 33.0999 62.3C33.1999 62.3 33.2999 62.4 33.3999 62.5C33.4999 62.5 33.5999 62.6 33.6999 62.6C33.7999 62.6 33.8999 62.7 33.9999 62.8C34.0999 62.8 34.1999 62.9 34.2999 62.9C34.4999 63 34.7999 63.1 34.9999 63.2C35.0999 63.2 35.1999 63.2 35.1999 63.3C35.2999 63.3 35.3999 63.4 35.4999 63.4C35.5999 63.4 35.6999 63.5 35.7999 63.5C35.8999 63.5 35.9999 63.6 36.0999 63.6C36.1999 63.6 36.2999 63.7 36.3999 63.7C36.4999 63.7 36.5999 63.8 36.7999 63.8C36.8999 63.8 36.9999 63.9 37.0999 63.9C37.1999 63.9 37.2999 64 37.4999 64C37.5999 64 37.6999 64.1 37.7999 64.1C37.8999 64.1 37.9999 64.2 38.1999 64.2C38.2999 64.2 38.3999 64.2 38.4999 64.3C38.5999 64.3 38.6999 64.4 38.8999 64.4C38.9999 64.4 39.0999 64.4 39.1999 64.5C39.2999 64.5 39.3999 64.5 39.5999 64.6C39.6999 64.6 39.8999 64.6 39.9999 64.5C39.8999 64.5 39.6999 64.5 39.5999 64.6C41.5999 65 43.6999 65.2 45.7999 65.2C62.7999 65.2 76.5999 51.4 76.5999 34.4C76.5999 17.4 62.7999 2.7 45.7999 2.7Z" fill="url(#paint0_linear_805_223)"/>
<path d="M29.5 9.2L21.3 2.7L21.8 2L30.6 8.9L26.9 17.1L26.1 16.8L29.5 9.2ZM33.5 15.2L34.1 15.9L40.8 9.9L35.6 0L34.8 0.4L39.7 9.7L33.5 15.2ZM9.9 26.4L15.2 32.8L15.9 32.3L10.2 25.4L0.1 30.2L0.5 31L9.9 26.4ZM28.5 15.9L29.2 16.4L34 8.8L26.3 0.7L25.7 1.3L32.9 8.9L28.5 15.9ZM31 15.4L31.7 16L37.5 9.1L31 0L30.3 0.5L36.4 9L31 15.4ZM23.8 18L24.6 18.2L27.1 9.6L17.4 4L17.1 4.7L26.2 10L23.8 18ZM12.8 20.2L16.1 27.8L16.9 27.5L13.3 19.3L2.2 21.1L2.4 21.9L12.8 20.2ZM11.2 23.2L15.6 30.3L16.3 29.8L11.6 22.1L1 25.5L1.3 26.3L11.2 23.2ZM19.9 21.2H20.8V12.2L10 9.5L9.8 10.4L20 13L19.9 21.2ZM18.4 23.2L19.2 23.1L18 14.2L6.9 13L6.8 13.9L17.3 15L18.4 23.2ZM14.8 17.4L17.1 25.4L17.9 25.2L15.5 16.5L4.3 16.9V17.8L14.8 17.4ZM45.3 20.4L54.3 20.1L56.7 9.2L55.9 9L53.6 19.3L45.3 19.5V20.4ZM47.1 21.3L47 22.2L55.9 23.2L59.8 12.7L59 12.4L55.4 22.2L47.1 21.3ZM48.6 23.3L48.4 24.1L57.1 26.3L62.4 16.5L61.6 16.1L56.6 25.4L48.6 23.3ZM49.9 25.5L49.6 26.3L57.9 29.7L64.5 20.7L63.8 20.2L57.6 28.7L49.9 25.5ZM36 15.4L36.5 16.1L44 11.1L40.2 0.6L39.4 0.9L42.9 10.8L36 15.4ZM57.4 38.9L51.7 32.9L51.1 33.5L57.3 40L67 34.4L66.6 33.7L57.4 38.9ZM50.8 27.9L50.4 28.7L58.2 33.3L66 25.3L65.4 24.7L58 32.2L50.8 27.9ZM38.5 16L38.9 16.8L47 12.9L44.7 1.9L43.9 2.1L46 12.4L38.5 16ZM51.4 30.3L50.9 31L57.9 36.6L66.7 29.8L66.2 29.1L57.9 35.5L51.4 30.3ZM40.9 16.8L41.2 17.6L49.8 14.9L49.1 3.8H48.2L48.9 14.3L40.9 16.8ZM43.3 18.9L52.2 17.4L53 6.3L52.1 6.2L51.3 16.7L43.1 18.1L43.3 18.9ZM21.8 19.5L22.6 19.6L23.9 10.7L13.6 6.5L13.3 7.3L23 11.3L21.8 19.5ZM44.2 48.2L43.4 48L41.5 56.8L51.5 61.8L51.9 61L42.5 56.3L44.2 48.2ZM42 49.6L41.2 49.3L38.1 57.7L47.3 64L47.8 63.3L39.1 57.4L42 49.6ZM46.1 46.6L45.2 46.5L44.5 55.5L55.1 59L55.4 58.2L45.4 54.9L46.1 46.6ZM37.3 51.3L36.6 50.8L31.3 58L38.4 66.6L39.1 66.1L32.4 58L37.3 51.3ZM39.7 50.6L38.9 50.2L34.6 58.1L42.9 65.6L43.5 64.9L35.7 57.9L39.7 50.6ZM53.2 48.2L50.4 40.4L49.6 40.7L52.6 49.2L63.7 48.1V47.1L53.2 48.2ZM55 45.3L51.1 37.9L50.3 38.3L54.5 46.3L65.4 43.7L65.2 42.9L55 45.3ZM56.4 42.2L51.5 35.5L50.8 36L56 43.3L66.4 39.2L66.1 38.4L56.4 42.2ZM47.8 44.7H46.9L47.5 53.7L58.5 55.7L58.7 54.9L48.4 53L47.8 44.7ZM49.2 42.6L48.4 42.8L50.2 51.6L61.4 52.1V51.2L50.9 50.8L49.2 42.6ZM34.7 51.7L34.1 51.1L27.8 57.5L33.7 67L34.4 66.5L28.9 57.5L34.7 51.7ZM32.2 51.7L31.7 51L24.6 56.5L29 66.7L29.8 66.4L25.6 56.8L32.2 51.7ZM17.7 42.6L18 41.8L9.5 39L3.5 48.5L4.2 49L9.8 40.1L17.7 42.6ZM15.3 35.3L15.9 34.6L9.3 28.5L0 34.7L0.5 35.4L9.2 29.7L15.3 35.3ZM19.1 44.7L19.3 43.9L10.5 42.3L5.8 52.4L6.6 52.7L10.9 43.1L19.1 44.7ZM16.6 40.3L17 39.5L9 35.5L1.7 44.1L2.4 44.7L9.2 36.7L16.6 40.3ZM15.8 37.9L16.3 37.2L8.9 32.1L0.5 39.5L1.1 40.2L9 33.2L15.8 37.9ZM20.8 46.6V45.7L11.8 45.3L8.7 56L9.5 56.2L12.4 46.1L20.8 46.6ZM27.2 50.6L26.9 49.8L18.5 53.1L20 64.2L20.8 64.1L19.5 53.7L27.2 50.6ZM29.7 51.3L29.3 50.5L21.5 54.9L24.5 65.7L25.3 65.5L22.5 55.4L29.7 51.3ZM24.7 48.7L16 50.8L15.9 62H16.8L16.9 51.5L25 49.5L24.7 48.7ZM22.7 47.4L13.7 48.3L12.1 59.3L12.9 59.4L14.4 49L22.7 48.2V47.4Z" fill="#29E7D6"/>
<defs>
<linearGradient id="paint0_linear_805_223" x1="15.0346" y1="33.4793" x2="76.5826" y2="33.4793" gradientUnits="userSpaceOnUse">
<stop offset="0.1" stop-color="#29E7D6"/>
<stop offset="1" stop-color="#000078"/>
</linearGradient>
</defs>
</svg>
