<?xml version="1.0" encoding="utf-8"?>
<!-- Generator: Adobe Illustrator 26.2.1, SVG Export Plug-In . SVG Version: 6.00 Build 0)  -->
<svg version="1.1" id="Layer_1" xmlns="http://www.w3.org/2000/svg" xmlns:xlink="http://www.w3.org/1999/xlink" x="0px" y="0px"
	 viewBox="0 0 1080 380" style="enable-background:new 0 0 1080 380;" xml:space="preserve">
<style type="text/css">
	.st0{fill-rule:evenodd;clip-rule:evenodd;fill:#F46262;}
	.st1{fill-rule:evenodd;clip-rule:evenodd;fill:#1D3861;}
	.st2{fill:#1D3861;}
	.st3{fill-rule:evenodd;clip-rule:evenodd;fill:#FFFFFF;}
	.st4{fill:#FFFFFF;}
	.st5{fill:#F46262;}
	.st6{fill-rule:evenodd;clip-rule:evenodd;fill:#1F222C;}
	.st7{fill:#1F222C;}
</style>
<g>
	<path class="st0" d="M107,101.9c9.7-6.5,21.2-10,32.9-10c7.8,0,15.5,1.5,22.6,4.5c7.2,3,13.7,7.3,19.2,12.8
		c5.5,5.5,9.9,12,12.8,19.2c3,7.2,4.5,14.9,4.5,22.6c0,11.7-3.5,23.1-10,32.9c-6.5,9.7-15.7,17.3-26.6,21.8
		c-10.8,4.5-22.7,5.7-34.2,3.4c-11.5-2.3-22-7.9-30.3-16.2c-8.3-8.3-13.9-18.8-16.2-30.3c-2.3-11.5-1.1-23.4,3.4-34.2
		C89.6,117.7,97.2,108.5,107,101.9z M118.9,182.7c6.2,4.2,13.5,6.4,21,6.4c10,0,19.6-4,26.7-11.1c7.1-7.1,11.1-16.8,11.1-26.8
		c0-7.5-2.2-14.9-6.4-21.1c-4.1-6.2-10-11.1-17-14c-6.9-2.9-14.5-3.6-21.8-2.2c-7.3,1.5-14.1,5.1-19.3,10.4
		c-5.3,5.3-8.9,12.1-10.3,19.4c-1.5,7.4-0.7,15,2.1,21.9C107.8,172.6,112.6,178.5,118.9,182.7z M139.8,224.1
		c21.6,0.1,39.2,17.8,39.2,39.4c0,21.6-17.5,39.1-39.2,38.9s-39.2-17.8-39.2-39.4C100.6,241.4,118.2,224,139.8,224.1z"/>
	<path class="st1" d="M968.4,90.8c0-1.6,1-3,2.5-3.7l24.4-8.7c2.6-1.1,5.4,0.8,5.4,3.7V275c0,2.2-1.5,3.9-3.7,3.9h-24.6
		c-2.2,0-3.9-1.8-3.9-3.9v-5.4c-1.3,0.9-2.6,1.7-3.9,2.5c-11.2,6.5-23.7,9.8-37.6,9.8c-13.7,0-26.2-3.3-37.3-9.8
		c-11.2-6.7-20.1-15.7-26.8-26.9c-6.5-11.2-9.7-23.8-9.7-37.6c0-13.8,3.2-26.2,9.7-37.3c6.7-11,15.6-19.8,26.8-26.3
		c11.2-6.7,23.6-10.1,37.3-10.1c13.9,0,26.5,3.3,37.6,9.8c1.3,0.8,2.6,1.6,3.9,2.4V90.8z M968.4,210.2v-6.5
		c-0.4-6.6-2.2-12.5-5.2-17.7c-3.5-6-8.3-10.7-14.4-14.1c-6.1-3.6-13.1-5.4-21.2-5.4c-7.8,0-14.9,1.8-21.2,5.4
		c-6.1,3.4-10.9,8.1-14.4,14.1c-3.3,6-5,13-5,20.9c0,7.9,1.7,15,5,21.2c3.5,6.2,8.3,11.1,14.4,14.7c6.3,3.4,13.3,5.1,21.2,5.1
		c8,0,15.1-1.7,21.2-5.1c6.3-3.6,11.1-8.5,14.4-14.7C966.2,222.8,968,216.9,968.4,210.2z"/>
	<path class="st2" d="M318.3,281.9c-7.9,0-15.5-1-22.8-3c-7.3-2.2-14-5.1-20.1-8.9c-5.1-3.3-9.6-7.1-13.6-11.5
		c-1.4-1.5-1.2-3.8,0.2-5.2l15.2-15.2c1.6-1.6,4.3-1.5,5.9,0.1c4.2,4.2,8.9,7.5,14,9.9c6.5,2.8,13.8,4.1,21.9,4.1
		c7.3,0,12.8-1.1,16.6-3.3c3.7-2.2,5.6-5.3,5.6-9.5c0-4.3-1.8-7.7-5.3-10.1c-3.5-2.4-8.2-4.3-13.9-5.9c-5.5-1.8-11.4-3.5-17.7-5.3
		c-6.1-1.8-12-4.1-17.7-7.1c-5.5-3.2-10.1-7.4-13.6-12.7c-3.5-5.3-5.3-12.2-5.3-20.7c0-9.1,2.1-16.9,6.2-23.4
		c4.3-6.5,10.4-11.5,18-15.1c7.9-3.5,17.3-5.3,28.1-5.3c11.4,0,21.5,2.1,30.2,6.2c7.9,3.5,14.6,8.6,20.1,15.4
		c1.2,1.5,1.1,3.7-0.3,5.1l-15.2,15.2c-1.7,1.7-4.4,1.5-6-0.2c-3.4-3.5-7.2-6.3-11.3-8.2c-5.3-2.6-11.4-3.8-18.3-3.8
		c-6.5,0-11.5,1-15.1,3c-3.5,2-5.3,4.8-5.3,8.6c0,3.9,1.8,7,5.3,9.2c3.5,2.2,8.1,4,13.6,5.6c5.7,1.6,11.6,3.4,17.7,5.3
		c6.3,1.8,12.2,4.3,17.7,7.7c5.7,3.2,10.4,7.5,13.9,13c3.5,5.3,5.3,12.3,5.3,21c0,13.8-4.8,24.7-14.5,32.8
		C347.9,277.8,334.8,281.9,318.3,281.9z"/>
	<path class="st1" d="M629.6,272.1c11.2,6.5,23.6,9.8,37.3,9.8c13.9,0,26.5-3.3,37.6-9.8c11.2-6.7,20-15.7,26.5-26.9
		c6.7-11.2,10-23.8,10-37.6c0-13.8-3.3-26.2-10-37.3c-6.5-11.2-15.3-20.1-26.5-26.6c-11.2-6.5-23.7-9.8-37.6-9.8
		c-13.7,0-26.2,3.4-37.3,10.1c-11.2,6.5-20.1,15.3-26.8,26.3c-6.5,11-9.7,23.5-9.7,37.3c0,13.8,3.2,26.3,9.7,37.6
		C609.5,256.5,618.4,265.4,629.6,272.1z M688.9,242.9c-6.1,3.4-13.1,5.1-21.2,5.1c-7.8,0-14.9-1.7-21.2-5.1
		c-6.1-3.6-10.9-8.5-14.4-14.7c-3.3-6.2-5-13.3-5-21.2c0-7.9,1.7-14.9,5-20.9c3.5-6,8.3-10.7,14.4-14.1c6.3-3.6,13.3-5.4,21.2-5.4
		c8,0,15.1,1.8,21.2,5.4c6.1,3.4,10.9,8.1,14.4,14.1c3.5,6,5.3,13,5.3,20.9c0,7.9-1.8,15-5.3,21.2
		C700,234.4,695.2,239.3,688.9,242.9z"/>
	<path class="st2" d="M763.1,278.9c-2.2,0-3.9-1.8-3.9-3.9V140.9c0-2.2,1.8-3.9,3.9-3.9h24.6c2.2,0,3.9,1.8,3.9,3.9v10.8
		c0.2-0.3,0.4-0.6,0.6-0.8c8.1-11.2,20.2-16.9,36.4-16.9c7.1,0,13.5,1.3,19.2,3.8c3.3,1.5,6.1,3.7,7.9,5.3c1.3,1.1,1.5,3,0.6,4.5
		l-11.2,19.9c-1.3,2.3-4.5,2.7-6.7,1.2c-1.4-1-2.9-1.8-4.5-2.4c-3.2-1.2-6.8-1.8-10.9-1.8c-9.1,0-16.6,2.9-22.5,8.6
		c-5.9,5.7-8.9,14.7-8.9,26.9v75c0,2.2-1.8,3.9-3.9,3.9H763.1z"/>
	<path class="st2" d="M383.9,137c-2.8,0-4.7,2.8-3.7,5.4l53.9,134.1c0.6,1.5,2,2.5,3.7,2.5h13.6c1.6,0,3.1-1,3.7-2.5l32.1-82.1
		l32.1,82.1c0.6,1.5,2,2.5,3.7,2.5h13.6c1.6,0,3.1-1,3.7-2.5l53.9-134.1c1-2.6-0.9-5.4-3.7-5.4h-25.1c-1.6,0-3.1,1-3.7,2.6
		l-32.5,87.1l-31.6-87.1c-0.6-1.6-2-2.6-3.7-2.6h-13.4c-1.7,0-3.1,1-3.7,2.6l-31.6,87.1l-32.5-87.1c-0.6-1.5-2-2.6-3.7-2.6H383.9z"
		/>
</g>
</svg>
